HIERARCHY
ROOT Hips
{
  OFFSET 0.000000 0.000000 0.000000
  CHANNELS 6 Xposition Yposition Zposition Zrotation Xrotation Yrotation
  JOINT RightUpLeg
  {
    OFFSET -6.592170 -8.933628 1.738860
    CHANNELS 3 Zrotation Xrotation Yrotation
    JOINT RightLeg
    {
      OFFSET -6.454057 -27.905268 26.890057
      CHANNELS 3 Zrotation Xrotation Yrotation
      JOINT RightFoot
      {
        OFFSET -3.882407 -37.413986 -22.508755
        CHANNELS 3 Zrotation Xrotation Yrotation
        JOINT RightToeBase
        {
          OFFSET -4.875326 -7.452132 11.654479
          CHANNELS 3 Zrotation Xrotation Yrotation
          End Site
          {
            OFFSET 0.000000 4.000000 0.000000
          }
        }
      }
    }
  }
  JOINT LeftUpLeg
  {
    OFFSET 6.002509 -8.547020 -0.722817
    CHANNELS 3 Zrotation Xrotation Yrotation
    JOINT LeftLeg
    {
      OFFSET 18.636345 -29.557245 21.256510
      CHANNELS 3 Zrotation Xrotation Yrotation
      JOINT LeftFoot
      {
        OFFSET -4.770453 -37.590309 -21.467318
        CHANNELS 3 Zrotation Xrotation Yrotation
        JOINT LeftToeBase
        {
          OFFSET 10.426028 -5.388007 9.378107
          CHANNELS 3 Zrotation Xrotation Yrotation
          End Site
          {
            OFFSET 0.000000 4.000000 0.000000
          }
        }
      }
    }
  }
  JOINT Spine
  {
    OFFSET -1.419174 11.483073 -5.393825
    CHANNELS 3 Zrotation Xrotation Yrotation
    JOINT Spine1
    {
      OFFSET 1.559404 11.256493 7.816071
      CHANNELS 3 Zrotation Xrotation Yrotation
      JOINT Spine2
      {
        OFFSET 1.083684 3.658283 3.974402
        CHANNELS 3 Zrotation Xrotation Yrotation
        JOINT Neck
        {
          OFFSET 1.992149 20.584833 8.428371
          CHANNELS 3 Zrotation Xrotation Yrotation
          JOINT Head
          {
            OFFSET 1.336749 6.028581 8.084390
            CHANNELS 3 Zrotation Xrotation Yrotation
            End Site
            {
              OFFSET 0.000000 4.000000 0.000000
            }
          }
        }
        JOINT RightShoulder
        {
          OFFSET -6.570219 11.623562 5.741563
          CHANNELS 3 Zrotation Xrotation Yrotation
          JOINT RightArm
          {
            OFFSET -10.331978 -1.217341 6.248501
            CHANNELS 3 Zrotation Xrotation Yrotation
            JOINT RightForeArm
            {
              OFFSET -10.300530 -23.536659 -0.654693
              CHANNELS 3 Zrotation Xrotation Yrotation
              JOINT RightHand
              {
                OFFSET 21.243015 -13.608623 8.685975
                CHANNELS 3 Zrotation Xrotation Yrotation
                End Site
                {
                  OFFSET 0.000000 4.000000 0.000000
                }
              }
            }
          }
        }
        JOINT LeftShoulder
        {
          OFFSET 7.732532 11.029196 1.792949
          CHANNELS 3 Zrotation Xrotation Yrotation
          JOINT LeftArm
          {
            OFFSET 12.746316 -0.550520 0.112155
            CHANNELS 3 Zrotation Xrotation Yrotation
            JOINT LeftForeArm
            {
              OFFSET 6.879200 -21.077091 -13.354437
              CHANNELS 3 Zrotation Xrotation Yrotation
              JOINT LeftHand
              {
                OFFSET -4.703738 -10.467428 18.199038
                CHANNELS 3 Zrotation Xrotation Yrotation
                End Site
                {
                  OFFSET 0.000000 4.000000 0.000000
                }
              }
            }
          }
        }
      }
    }
  }
}
MOTION
Frames: 15
Frame Time: 0.050000
0.000000 0.000000 0.000000 -0.000000 0.000000 0.000000 -0.000000 0.000000 0.000000 -0.000000 0.000000 0.000000 -0.000000 0.000000 0.000000 -0.000000 0.000000 0.000000 -0.000000 0.000000 0.000000 -0.000000 0.000000 0.000000 -0.000000 0.000000 0.000000 -0.000000 0.000000 0.000000 -0.000000 0.000000 0.000000 -0.000000 0.000000 0.000000 -0.000000 0.000000 0.000000 -0.000000 0.000000 0.000000 -0.000000 0.000000 0.000000 -0.000000 0.000000 0.000000 -0.000000 0.000000 0.000000 -0.000000 0.000000 0.000000 -0.000000 0.000000 0.000000 -0.000000 0.000000 0.000000 -0.000000 0.000000 0.000000 -0.000000 0.000000 0.000000 -0.000000 0.000000 0.000000
0.721649 -0.120378 0.774352 0.042065 -0.095604 0.007975 -0.015494 1.229266 -0.247272 -0.422281 0.498083 0.303468 -0.074642 -2.207941 -0.425711 0.462243 0.577388 0.346484 -0.778784 0.508814 -0.275201 0.339446 0.375684 0.399139 0.679678 -1.373138 -0.740195 -0.293374 0.581323 0.624348 -0.147485 -1.250765 0.252735 0.211268 0.620077 -0.161227 0.116768 -0.358047 -0.088995 -0.085698 0.091600 0.025603 -0.134217 0.991697 -0.038298 -0.145380 1.186203 -0.508357 0.674362 0.773285 0.086903 -1.325156 -1.015570 -0.196245 0.574779 0.141779 0.583361 -0.292360 1.075653 -0.204530 0.288201 -0.223185 -0.018487 -1.001457 -1.680337 -0.300595 0.775529 1.915230 0.490435
1.518075 -0.253814 1.468169 -0.038695 -0.068620 -0.026673 -0.072573 1.872412 -0.503012 -0.801749 0.728161 0.802196 0.209996 -3.709000 -0.583542 0.671350 1.172084 0.281839 -1.477369 0.951698 -0.499976 0.648855 0.929443 0.810036 0.697763 -2.939609 -2.656307 0.099522 1.134436 2.404539 -0.169883 -2.013139 0.462369 0.452672 1.026361 -0.392991 0.271769 -0.817707 -0.082667 -0.249015 0.133636 0.069447 -0.257812 1.735699 -0.034541 -0.200982 2.156974 -0.869167 1.474862 1.210098 0.178664 -3.614823 -1.051131 0.186466 1.829263 -0.451880 0.456950 -0.508950 1.869020 0.035543 0.455097 -0.659554 -0.502178 -1.607571 -2.525158 -0.097476 1.142957 3.182119 0.554446
2.331121 0.082636 2.062179 -0.157785 -0.372046 -0.120444 -0.209252 3.617571 -0.994679 -1.099000 0.154797 1.608631 0.328604 -4.859778 -1.282458 1.064088 1.448665 0.721581 -2.276453 1.962769 -0.589250 1.265084 0.488901 1.174449 0.958213 -4.167748 -4.607143 0.016569 2.099665 4.223614 0.074304 -2.842995 0.635249 0.811654 1.164994 -0.719240 0.035701 -1.178931 0.186301 -0.107733 -0.051727 -0.136271 -0.644197 3.271954 0.150622 -0.453365 3.582601 -1.637662 2.598142 1.400093 0.778483 -4.998081 -1.551557 -0.322804 2.095071 -0.165690 1.050766 -0.892624 3.226598 0.107492 0.542717 -2.376635 -1.115789 -2.398186 -3.144097 0.007459 1.965395 5.505330 0.932196
3.188202 0.679183 2.529594 -0.177985 -0.801540 -0.183343 -0.222114 5.094908 -1.211206 -1.458134 -1.251021 2.129530 0.740913 -5.000306 -1.216411 1.048348 1.918932 0.378676 -3.396804 3.282912 -0.714947 2.245107 -0.368869 1.550553 0.974479 -4.699776 -5.868487 0.061669 2.622817 5.387310 0.510574 -3.986044 0.645385 0.892726 1.441571 -0.834258 -0.104384 -1.473509 0.365206 -0.074356 0.388315 -0.420367 -1.046048 4.417316 0.439559 -0.935294 5.159088 -2.199515 3.787523 1.137348 1.477203 -7.311064 -1.405417 -1.635630 3.343256 0.113890 2.209426 -1.571948 4.797023 -0.446605 0.864177 -5.187520 -1.439781 -3.348691 -3.228310 0.541242 2.932499 8.393156 1.284676
4.052542 1.334542 2.892679 -0.459163 -1.332253 -0.383769 -0.271306 6.722479 -1.569928 -1.283835 -2.853805 2.839249 0.675340 -4.799245 -1.579876 1.285285 2.217850 0.555006 -4.366242 4.836381 -0.634282 3.449479 -1.282366 1.848150 0.807860 -5.240488 -7.037113 0.156138 3.089783 6.530442 1.253058 -4.859697 0.741993 0.974715 1.537401 -0.942878 -0.308110 -1.615950 0.589464 0.060274 0.971744 -0.891333 -1.545076 5.274512 0.913699 -1.340511 6.624180 -2.701211 4.853041 0.521118 2.303556 -9.015051 -1.208938 -3.253224 4.046693 0.757304 3.557009 -2.200746 6.217449 -1.457931 1.332000 -8.131532 -1.391731 -4.484015 -2.850388 0.965192 3.954255 10.967301 1.901182
4.884425 2.151662 3.112845 -0.859448 -1.796231 -0.635097 -0.147220 8.562035 -1.885962 -1.048818 -5.038860 3.535642 0.595365 -4.412374 -1.757220 1.467662 2.637467 0.560728 -5.248352 6.574453 -0.291904 4.866593 -2.543783 1.921472 0.332909 -5.363345 -7.758365 0.419413 3.250499 7.309357 2.229723 -5.932284 0.835687 0.977017 1.368912 -0.899510 -0.487115 -1.347464 0.699477 0.106434 1.478357 -1.287394 -2.023306 6.199154 1.344271 -2.124528 7.949198 -3.482261 5.888969 0.024725 3.533179 -10.179166 -1.032937 -4.945217 4.524378 1.533894 4.956669 -2.572912 7.625811 -2.534140 1.678634 -11.037729 -1.319786 -5.936003 -2.320585 1.179603 5.080213 13.353173 2.852499
5.721726 2.796936 3.244602 -1.344949 -2.205560 -0.923255 -0.127997 10.037199 -2.251682 -0.327735 -6.777264 4.222026 0.111472 -3.938757 -2.089212 1.776410 2.881994 0.891948 -6.019037 8.030578 -0.005692 6.228795 -3.502665 2.123675 -0.204064 -5.601976 -8.698004 0.731624 3.475209 8.299740 3.253831 -6.820894 0.958052 1.010444 1.387939 -0.971900 -0.657329 -1.338835 0.919764 0.177125 1.962951 -1.736736 -2.529356 6.978480 1.837951 -2.884348 9.136128 -4.279885 6.785941 -0.351397 4.760280 -11.068454 -1.069195 -6.655997 4.813668 2.420763 6.410623 -3.096684 8.871054 -3.860955 2.252539 -14.013827 -0.925268 -7.494938 -1.180155 1.118913 6.226157 15.247448 4.183451
6.585569 3.237069 3.264496 -1.723102 -2.727596 -1.176611 -0.106455 11.461310 -2.501198 0.170493 -8.399782 4.826116 -0.170919 -3.290599 -2.438471 2.003974 2.997147 1.182563 -6.751959 9.313881 0.189597 7.331164 -4.200399 2.453319 -0.680112 -5.721754 -9.632390 1.096964 3.628308 9.216080 4.078041 -7.640959 1.110712 1.146909 1.390000 -1.125562 -0.945686 -1.151081 1.179124 0.332582 2.341939 -2.208352 -3.022599 7.736786 2.316616 -3.455203 10.245425 -5.048742 7.364388 -0.687297 5.888484 -11.563887 -1.127031 -8.109640 4.940166 3.211748 7.641631 -3.621857 10.009724 -5.107945 2.683049 -16.914261 -0.397058 -8.595000 0.306987 1.002191 7.184153 16.754413 5.395395
7.505454 3.875601 3.129436 -2.319880 -3.063061 -1.515199 0.020375 12.892103 -2.800753 0.927980 -10.460018 5.594421 -0.733200 -2.630787 -2.884623 2.416089 3.392180 1.582715 -7.521374 10.740523 0.585861 8.780487 -5.388167 2.739430 -1.201324 -5.823882 -10.653758 1.364708 3.920081 10.265595 5.158694 -8.694904 1.349783 1.260412 1.581009 -1.320906 -1.308638 -1.160420 1.534671 0.667407 2.748680 -2.887416 -3.640182 8.515521 2.946897 -4.326150 11.276284 -6.192582 7.901917 -0.899313 7.462313 -11.240765 -1.432323 -9.862925 4.586943 4.308842 9.114885 -3.880804 11.210991 -6.605954 3.111146 -19.887739 0.315653 -10.186618 1.721828 0.493268 8.402073 18.483297 7.133322
8.476654 4.383081 2.868239 -3.108542 -3.349742 -1.945144 0.202252 14.193150 -3.086571 1.645601 -12.310341 6.559532 -0.954803 -1.956626 -3.286976 2.687648 3.648958 1.850819 -8.303151 11.975482 0.879380 10.609785 -6.466627 3.214506 -1.960373 -6.191839 -12.316023 1.565803 4.590828 12.029703 6.312442 -9.639158 1.745582 1.517850 1.876096 -1.713963 -1.726563 -1.240522 1.998312 1.134035 2.956667 -3.718612 -4.373143 9.284537 3.721161 -5.010518 12.254913 -7.675250 8.210487 -0.844156 9.188670 -10.838619 -2.063310 -11.397401 4.206685 5.321521 10.483266 -4.309698 12.239508 -8.516827 3.880487 -22.636179 1.696789 -11.549266 3.376814 -0.098141 9.484869 19.866826 8.862916
9.511958 4.919237 2.416021 -4.105943 -3.352515 -2.441015 0.491067 15.171232 -3.371520 2.577719 -14.451375 7.672559 -1.017012 -0.871327 -3.475086 2.803322 3.850393 1.901031 -8.900972 12.896190 1.188674 12.571434 -7.666477 3.739410 -2.652905 -6.329506 -13.553129 1.627975 5.180546 13.420797 7.737713 -10.632577 2.167458 1.743235 1.876469 -2.021547 -2.225403 -0.940825 2.448443 1.698643 2.561159 -4.557639 -5.191439 10.340510 4.538495 -5.570896 13.020519 -9.421454 8.305036 -0.566613 11.029242 -10.092099 -3.103223 -12.807017 3.550134 6.367597 11.824275 -4.435158 12.968973 -10.381786 4.681441 -24.843077 3.096443 -13.357712 4.877698 -1.054217 10.636019 20.973559 11.028152
10.599587 5.343676 1.812500 -5.428132 -3.225925 -3.079925 0.805121 15.792891 -3.684815 3.964827 -16.326245 9.033676 -1.584732 0.260935 -4.210963 3.307172 4.120826 2.548603 -9.211269 13.540245 1.503702 14.586886 -8.367215 4.338758 -3.621106 -6.715071 -15.119123 1.877443 5.792056 15.160706 9.541377 -11.457969 2.681270 2.142906 2.230926 -2.768985 -2.810411 -0.920455 3.279633 2.458736 2.179360 -5.907961 -6.410070 10.932527 5.944716 -5.865175 13.697103 -11.659479 8.296166 -0.266546 13.269745 -9.902540 -4.426083 -14.429669 3.084657 7.518189 13.455877 -4.854344 13.355661 -12.809611 6.064969 -26.476207 5.451484 -15.519620 6.503363 -2.625919 11.904318 21.732800 13.807187
11.747969 5.609477 1.104112 -6.696597 -3.078846 -3.688708 0.993023 16.435595 -4.083407 5.692305 -18.341144 10.523184 -2.315156 1.701036 -4.988572 3.851976 4.297279 3.337558 -9.393872 13.949806 1.721716 16.575154 -8.870688 4.906275 -4.654703 -7.135630 -16.676769 2.005476 6.503457 16.961010 11.378243 -12.259485 3.126733 2.606709 2.661445 -3.705193 -3.525613 -0.903841 4.329962 3.302626 1.532991 -7.402746 -7.810343 11.580891 7.552590 -5.997775 14.362220 -14.163084 8.040249 0.292687 15.573883 -10.282733 -5.999375 -16.184144 3.124143 8.659362 15.298018 -5.342637 13.638908 -15.229999 7.559423 -27.907848 7.989266 -17.574144 8.191967 -4.229119 13.114056 22.416588 16.587898
12.894492 5.949688 0.318279 -8.406853 -2.740566 -4.484239 1.370281 17.148431 -4.512114 8.027634 -21.177346 12.518730 -3.623180 3.580915 -6.279696 4.881676 4.898061 4.663515 -9.348272 14.459458 2.256773 18.829232 -9.711876 5.455921 -5.653906 -7.728957 -18.353263 1.892837 7.424837 18.932456 13.827855 -13.308789 3.762918 3.166103 3.298417 -4.916694 -4.422886 -1.030945 5.678289 4.506365 0.943039 -9.580040 -9.729852 11.992500 9.835689 -6.109557 15.151307 -17.260637 7.812886 0.914299 18.438869 -10.723988 -8.009168 -18.512969 2.872351 10.194750 17.708926 -5.648898 13.945202 -18.517337 9.526017 -29.290208 11.494877 -20.120136 10.528200 -6.093018 14.503440 22.860172 20.073704
